<?xml version="1.0" encoding="utf-8"?>
<!-- Generator: Adobe Illustrator 22.1.0, SVG Export Plug-In . SVG Version: 6.00 Build 0)  -->
<svg version="1.1" id="Livello_1" xmlns="http://www.w3.org/2000/svg" xmlns:xlink="http://www.w3.org/1999/xlink" x="0px" y="0px"
	 viewBox="0 0 1190.6 1190.6" style="enable-background:new 0 0 1190.6 1190.6;" xml:space="preserve">
<style type="text/css">
	.st0{fill:#ED8AEA;}
	.st1{fill:none;stroke:#C62060;stroke-miterlimit:10;}
	.st2{fill:none;stroke:#F4F434;stroke-miterlimit:10;}
	.st3{fill:none;stroke:#2DF222;stroke-miterlimit:10;}
	.st4{fill:none;}
	.st5{font-family:'OpenSans-Light';}
	.st6{font-size:16px;}
	.st7{clip-path:url(#SVGID_2_);}
	.st8{font-family:'MyriadPro-Regular';}
	.st9{font-size:60px;}
	.st10{font-family:'EBGaramond-Italic';}
	.st11{font-size:12px;}
</style>
<title>Tavola disegno 1</title>
<g id="Livello_1-2">
	<rect y="0" class="st0" width="1190.6" height="1190.6"/>
</g>
<g id="Livello_3">
	<rect x="503.1" y="503.2" class="st1" width="184.3" height="184.3"/>
	<rect x="724.3" y="503.2" class="st1" width="184.3" height="184.3"/>
	<rect x="60.9" y="503.2" class="st1" width="184.3" height="184.3"/>
	<rect x="282" y="503.2" class="st1" width="184.3" height="184.3"/>
	<rect x="945.3" y="503.2" class="st1" width="184.3" height="184.3"/>
	<rect x="503.1" y="282.1" class="st1" width="184.3" height="184.3"/>
	<rect x="724.3" y="282.1" class="st1" width="184.3" height="184.3"/>
	<rect x="60.9" y="282.1" class="st1" width="184.3" height="184.3"/>
	<rect x="282" y="282.1" class="st1" width="184.3" height="184.3"/>
	<rect x="945.3" y="282.1" class="st1" width="184.3" height="184.3"/>
	<rect x="503.1" y="945.4" class="st1" width="184.3" height="184.3"/>
	<rect x="724.3" y="945.4" class="st1" width="184.3" height="184.3"/>
	<rect x="60.9" y="945.4" class="st1" width="184.3" height="184.3"/>
	<rect x="282" y="945.4" class="st1" width="184.3" height="184.3"/>
	<rect x="945.3" y="945.4" class="st1" width="184.3" height="184.3"/>
	<rect x="503.1" y="724.3" class="st1" width="184.3" height="184.3"/>
	<rect x="724.3" y="724.3" class="st1" width="184.3" height="184.3"/>
	<rect x="60.9" y="724.3" class="st1" width="184.3" height="184.3"/>
	<rect x="282" y="724.3" class="st1" width="184.3" height="184.3"/>
	<rect x="945.3" y="724.3" class="st1" width="184.3" height="184.3"/>
	<rect x="503.1" y="60.9" class="st1" width="184.3" height="184.3"/>
	<rect x="724.3" y="60.9" class="st1" width="184.3" height="184.3"/>
	<rect x="60.9" y="60.9" class="st1" width="184.3" height="184.3"/>
	<rect x="282" y="60.9" class="st1" width="184.3" height="184.3"/>
	<rect x="945.3" y="60.9" class="st1" width="184.3" height="184.3"/>
</g>
<g id="Livello_4">
	<rect x="429.5" y="429.5" class="st2" width="147.4" height="147.4"/>
	<rect x="613.7" y="429.5" class="st2" width="147.4" height="147.4"/>
	<rect x="429.5" y="613.7" class="st2" width="147.4" height="147.4"/>
	<rect x="613.7" y="613.7" class="st2" width="147.4" height="147.4"/>
	<rect x="429.5" y="798" class="st2" width="147.4" height="147.4"/>
	<rect x="613.7" y="798" class="st2" width="147.4" height="147.4"/>
	<rect x="429.5" y="982.2" class="st2" width="147.4" height="147.4"/>
	<rect x="613.7" y="982.2" class="st2" width="147.4" height="147.4"/>
	<rect x="429.5" y="60.9" class="st2" width="147.4" height="147.4"/>
	<rect x="613.7" y="60.9" class="st2" width="147.4" height="147.4"/>
	<rect x="429.5" y="245.2" class="st2" width="147.4" height="147.4"/>
	<rect x="613.7" y="245.2" class="st2" width="147.4" height="147.4"/>
	<rect x="60.9" y="429.5" class="st2" width="147.4" height="147.4"/>
	<rect x="245.2" y="429.5" class="st2" width="147.4" height="147.4"/>
	<rect x="60.9" y="613.7" class="st2" width="147.4" height="147.4"/>
	<rect x="245.2" y="613.7" class="st2" width="147.4" height="147.4"/>
	<rect x="60.9" y="798" class="st2" width="147.4" height="147.4"/>
	<rect x="245.2" y="798" class="st2" width="147.4" height="147.4"/>
	<rect x="60.9" y="982.2" class="st2" width="147.4" height="147.4"/>
	<rect x="245.2" y="982.2" class="st2" width="147.4" height="147.4"/>
	<rect x="60.9" y="60.9" class="st2" width="147.4" height="147.4"/>
	<rect x="245.2" y="60.9" class="st2" width="147.4" height="147.4"/>
	<rect x="60.9" y="245.2" class="st2" width="147.4" height="147.4"/>
	<rect x="245.2" y="245.2" class="st2" width="147.4" height="147.4"/>
	<rect x="798" y="429.5" class="st2" width="147.4" height="147.4"/>
	<rect x="982.2" y="429.5" class="st2" width="147.4" height="147.4"/>
	<rect x="798" y="613.7" class="st2" width="147.4" height="147.4"/>
	<rect x="982.2" y="613.7" class="st2" width="147.4" height="147.4"/>
	<rect x="798" y="798" class="st2" width="147.4" height="147.4"/>
	<rect x="982.2" y="798" class="st2" width="147.4" height="147.4"/>
	<rect x="798" y="982.2" class="st2" width="147.4" height="147.4"/>
	<rect x="982.2" y="982.2" class="st2" width="147.4" height="147.4"/>
	<rect x="798" y="60.9" class="st2" width="147.4" height="147.4"/>
	<rect x="982.2" y="60.9" class="st2" width="147.4" height="147.4"/>
	<rect x="798" y="245.2" class="st2" width="147.4" height="147.4"/>
	<rect x="982.2" y="245.2" class="st2" width="147.4" height="147.4"/>
</g>
<rect x="337.3" y="337.3" class="st3" width="239.5" height="239.5"/>
<rect x="337.3" y="60.9" class="st3" width="239.5" height="239.5"/>
<rect x="613.7" y="60.9" class="st3" width="239.5" height="239.5"/>
<rect x="337.3" y="613.7" class="st3" width="239.5" height="239.5"/>
<rect x="613.7" y="613.7" class="st3" width="239.5" height="239.5"/>
<rect x="337.3" y="890.1" class="st3" width="239.5" height="239.5"/>
<rect x="60.9" y="337.3" class="st4" width="239.5" height="239.5"/>
<rect x="153.1" y="374.2" class="st4" width="239.5" height="239.5"/>
<text transform="matrix(1 0 0 1 153.0699 386.33)"><tspan x="0" y="0" class="st5 st6">Lorem ipsum dolor sit amet, con</tspan><tspan x="232.8" y="0" class="st5 st6">-</tspan><tspan x="0" y="19.2" class="st5 st6">sectetuer adipiscing elit, sed </tspan><tspan x="0" y="38.4" class="st5 st6">diam nonummy nibh euismod </tspan><tspan x="0" y="57.6" class="st5 st6">tincidunt ut laoreet dolore </tspan><tspan x="0" y="76.8" class="st5 st6">magna aliquam erat volutpat. Ut </tspan><tspan x="0" y="96" class="st5 st6">wisi enim ad minim veniam, quis </tspan><tspan x="0" y="115.2" class="st5 st6">nostrud exerci tation ullamcor</tspan><tspan x="216.4" y="115.2" class="st5 st6">-</tspan><tspan x="0" y="134.4" class="st5 st6">per suscipit lobortis nisl ut ali</tspan><tspan x="208.6" y="134.4" class="st5 st6">-</tspan><tspan x="0" y="153.6" class="st5 st6">quip ex ea commodo consequat. </tspan><tspan x="0" y="172.8" class="st5 st6">Duis autem vel eum iriure dolor </tspan><tspan x="0" y="192" class="st5 st6">in hendrerit in vulputate velit </tspan><tspan x="0" y="211.2" class="st5 st6">esse molestie consequat, vel </tspan></text>
<rect x="60.9" y="613.7" class="st3" width="239.5" height="239.5"/>
<rect x="60.9" y="890.1" class="st3" width="239.5" height="239.5"/>
<rect x="613.7" y="890.1" class="st3" width="239.5" height="239.5"/>
<g>
	<defs>
		<rect id="SVGID_1_" x="890.1" y="337.3" width="239.5" height="239.5"/>
	</defs>
	<clipPath id="SVGID_2_">
		<use xlink:href="#SVGID_1_"  style="overflow:visible;"/>
	</clipPath>
	<g class="st7">
		
			<image style="overflow:visible;enable-background:new    ;" width="4608" height="3072" xlink:href="8A48142D.jpg"  transform="matrix(0.24 0 0 0.24 44 47.55)">
		</image>
		<rect x="613.7" y="337.3" class="st3" width="239.5" height="239.5"/>
	</g>
</g>
<rect x="890.1" y="60.9" class="st3" width="239.5" height="239.5"/>
<rect x="890.1" y="613.7" class="st3" width="239.5" height="239.5"/>
<rect x="890.1" y="890.1" class="st3" width="239.5" height="239.5"/>
<g>
	<defs>
		<ellipse id="SVGID_3_" cx="1004" cy="178.6" rx="120" ry="111"/>
	</defs>
	<clipPath id="SVGID_4_">
		<use xlink:href="#SVGID_3_"  style="overflow:visible;"/>
	</clipPath>
	<g style="clip-path:url(#SVGID_4_);">
		
			<image style="overflow:visible;" width="4608" height="3072" xlink:href="../Documents/GitHub/strumet.github.io/ex/vectors/893159_05.JPG"  transform="matrix(0.24 0 0 0.24 858 55.5512)">
		</image>
	</g>
</g>
<rect x="350" y="95.6" class="st4" width="411.1" height="112.8"/>
<text transform="matrix(1 0 0 1 350 138.1508)" class="st8 st9">Landscape</text>
<rect x="614.3" y="337.3" class="st3" width="239.5" height="239.5"/>
<rect x="894" y="587.6" class="st4" width="230" height="34"/>
<text transform="matrix(1 0 0 1 894 596.0112)" class="st10 st11">natura cielo piante</text>
<ellipse class="st4" cx="284.6" cy="787.4" rx="117" ry="102.7"/>
<text transform="matrix(1 0 0 1 214.6084 715.9975)"><tspan x="0" y="0" class="st5 st6">Lorem ipsum dolor </tspan><tspan x="-22.3" y="19.2" class="st5 st6">sit amet, consectetuer </tspan><tspan x="-35.8" y="38.4" class="st5 st6">adipiscing elit, sed diam no</tspan><tspan x="157.2" y="38.4" class="st5 st6">-</tspan><tspan x="-43.6" y="57.6" class="st5 st6">nummy nibh euismod tincidunt </tspan><tspan x="-46.8" y="76.8" class="st5 st6">ut laoreet dolore magna ali</tspan><tspan x="146.7" y="76.8" class="st5 st6">-</tspan><tspan x="-43.6" y="96" class="st5 st6">quam erat volutpat. Ut wisi </tspan><tspan x="-35.9" y="115.2" class="st5 st6">enim ad minim veniam, quis </tspan><tspan x="-22.4" y="134.4" class="st5 st6">nostrud exerci tation </tspan><tspan x="-0.2" y="153.6" class="st5 st6">ullamcorper susci</tspan><tspan x="126.5" y="153.6" class="st5 st6">-</tspan><tspan x="51.1" y="172.8" class="st5 st6">pit </tspan></text>
<rect x="60.8" y="60" class="st3" width="239.5" height="239.5"/>
<rect x="59.3" y="337.9" class="st3" width="239.5" height="239.5"/>
</svg>
